<svg xmlns="http://www.w3.org/2000/svg" viewBox="0 0 450 250" width="100%" height="100%">
  <rect width="100%" height="100%" fill="#FFFFFF"/>
  
  <g transform="translate(60, 45)">
    <g id="custom-K-logo">
      <rect x="20" y="30" width="35" height="130" rx="10" fill="#1D9E75" />
      
      <path d="M 45 105 L 110 40" stroke="#1D9E75" stroke-width="35" stroke-linecap="round" />
      
      <path d="M 50 85 L 115 155" stroke="#1D9E75" stroke-width="35" stroke-linecap="round" />
      
      <path d="M 35 80 L 100 80 M 85 68 L 100 80 L 85 92" fill="none" stroke="#1D9E75" stroke-width="14" stroke-linecap="round" stroke-linejoin="round"/>
      <path d="M 35 80 L 100 80 M 85 68 L 100 80 L 85 92" fill="none" stroke="#FFFFFF" stroke-width="7" stroke-linecap="round" stroke-linejoin="round"/>
      
      <path d="M 95 110 L 30 110 M 45 98 L 30 110 L 45 122" fill="none" stroke="#1D9E75" stroke-width="14" stroke-linecap="round" stroke-linejoin="round"/>
      <path d="M 95 110 L 30 110 M 45 98 L 30 110 L 45 122" fill="none" stroke="#FFFFFF" stroke-width="7" stroke-linecap="round" stroke-linejoin="round"/>
    </g>
    
    <text x="112" y="132" font-family="-apple-system, BlinkMacSystemFont, 'Segoe UI', Roboto, Helvetica, Arial, sans-serif" font-size="95" font-weight="800" fill="#1D9E75" letter-spacing="-4">onek</text>
  </g>
</svg>
